<?xml version="1.0" encoding="utf-8"?>
<!-- Generator: Adobe Illustrator 23.0.6, SVG Export Plug-In . SVG Version: 6.00 Build 0)  -->
<svg version="1.1" xmlns="http://www.w3.org/2000/svg" xmlns:xlink="http://www.w3.org/1999/xlink" x="0px" y="0px"
	 viewBox="0 0 661 612" style="enable-background:new 0 0 661 612;" xml:space="preserve">
<style type="text/css">
	.st0{opacity:0.17;fill:#DB832D;}
	.st1{fill:#27DEBF;}
	.st2{opacity:0.2;}
	.st3{fill:#FFFFFF;}
	.st4{display:none;}
	.st5{display:inline;}
	.st6{fill:#E0E0E0;}
	.st7{fill:#F5F5F5;}
	.st8{fill:#EBEBEB;}
	.st9{fill:#F0F0F0;}
	.st10{fill:#455A64;}
	.st11{fill:#37474F;}
	.st12{fill:#263238;}
	.st13{fill:#FFFFFF;stroke:#27DEBF;stroke-miterlimit:10;}
	.st14{fill:#FF8A8D;stroke:#27DEBF;stroke-miterlimit:10;}
	.st15{fill:#F4BF90;stroke:#27DEBF;stroke-miterlimit:10;}
	.st16{fill:#DB832D;}
	.st17{fill:#F4BF90;}
	.st18{opacity:0.7;fill:#FFFFFF;}
	.st19{fill:#E2A67D;}
	.st20{opacity:0.1;fill:#E2A67D;}
	.st21{fill:#EF9E67;}
	.st22{opacity:0.2;fill:#EF9E67;}
	.st23{opacity:0.1;fill:#F4BF90;}
	.st24{fill:#F4E0D3;}
	.st25{opacity:0.2;fill:#F4E0D3;}
	.st26{fill:#E89054;}
	.st27{opacity:0.1;fill:#E89054;}
	.st28{fill:#FFA8A7;}
	.st29{fill:#F28F8F;}
	.st30{fill:#B55E1C;}
	.st31{opacity:0.3;}
	.st32{fill:#D68C5B;}
	.st33{display:none;opacity:0.7;fill:#FFFFFF;}
	.st34{display:inline;fill:#EBEBEB;}
</style>
<g id="Floor">
	<path id="XMLID_413_" class="st0" d="M94.4,561.9c126.4,60.1,331.4,60.1,457.8,0c126.4-60.1,126.4-157.6,0-217.7
		c-126.4-60.1-331.4-60.1-457.8,0C-32.1,404.3-32.1,501.8,94.4,561.9z"/>
</g>
<g id="Plants">
	<g>
		<g id="XMLID_137_">
			<g id="XMLID_140_">
				<g>
					<path id="XMLID_142_" class="st1" d="M84.7,500.3l14.9-8.6c0,0,12.3-9,18.4-25.8c4.6-12.7,4-22.3,0.7-27.1
						c-4.1-5.9-14.6-4.9-15,7.6C102.8,471.1,95.6,488.2,84.7,500.3z"/>
					<path id="XMLID_141_" class="st2" d="M84.7,500.3l14.9-8.6c0,0,12.3-9,18.4-25.8c4.6-12.7,4-22.3,0.7-27.1
						c-4.1-5.9-14.6-4.9-15,7.6C102.8,471.1,95.6,488.2,84.7,500.3z"/>
				</g>
				<path class="st3" d="M84.7,501.2c-0.3,0-0.6-0.1-0.8-0.4c-0.3-0.4-0.2-1,0.2-1.3c34.5-23.8,27.8-57,27.7-57.3
					c-0.1-0.5,0.2-1,0.7-1.1c0.5-0.1,1,0.2,1.1,0.7c0.1,0.3,7,34.7-28.5,59.2C85,501.2,84.9,501.2,84.7,501.2z"/>
			</g>
			<g id="XMLID_138_">
				<path id="XMLID_139_" class="st1" d="M54.9,517.5c0,0-5.2-4.2-3.9-9.9c1.3-5.7,4.6-9.8-1.2-17.2c-5.8-7.4-7.2-17.2-0.5-22.5
					c5.2-4.1,13.4,1.7,16.3-9.2c2.2-7.9,1.4-25.5,11.6-31.4c10.2-5.9,16.5,3,14.9,14.9c-1.4,10.7-3.4,21-1.8,23.8
					c3,5.5,8.1,4.7,7.8,14.8c-0.2,9.3-9.1,17.1-9.1,17.1L54.9,517.5z"/>
				<path class="st3" d="M71.9,508.6c-0.5,0-0.9-0.3-0.9-0.8c-2.6-21.7,3.6-59.1,8.8-70.3c0.2-0.5,0.8-0.7,1.2-0.4
					c0.5,0.2,0.7,0.8,0.4,1.2c-5.1,10.9-11.2,48.6-8.6,69.3c0.1,0.5-0.3,1-0.8,1C72,508.6,72,508.6,71.9,508.6z"/>
				<path class="st3" d="M71.4,491.7c-0.1,0-0.3,0-0.4-0.1c-6.4-3.1-10.4-14.1-10.6-14.6c-0.2-0.5,0.1-1,0.6-1.2
					c0.5-0.2,1,0.1,1.2,0.6c0,0.1,4,10.8,9.6,13.6c0.5,0.2,0.6,0.8,0.4,1.2C72.1,491.5,71.8,491.7,71.4,491.7z"/>
				<path class="st3" d="M71.3,499c-0.4,0-0.7-0.2-0.9-0.6c-0.2-0.5,0-1,0.5-1.2c10.7-4.3,17.4-17,17.5-17.2
					c0.2-0.4,0.8-0.6,1.2-0.4c0.5,0.2,0.6,0.8,0.4,1.2c-0.3,0.5-7.1,13.5-18.4,18C71.6,499,71.4,499,71.3,499z"/>
			</g>
		</g>
		<g>
			<g id="XMLID_135_">
				<path id="XMLID_136_" class="st1" d="M445.8,400.5c0,0-8-12.9-8.8-27c-0.8-14.1,2.3-19.9,6.6-21.6c4.3-1.7,4.6,3.5,6.8,6.6
					c2.2,3.1,6.6,1.3,8.3-8.2c1.6-9.5,7.7-25.7,20.1-28.8c13.8-3.4,6.4,12.7,2.9,19c-3.5,6.3-6.1,14.8-3.9,17.2c2.3,2.3,5.8-2,9.2,2
					c4.1,4.8-8.6,22.1-15.9,26.3L445.8,400.5z"/>
				<path class="st3" d="M456.8,395.1C456.8,395.1,456.8,395.1,456.8,395.1c-0.6,0-0.9-0.5-0.9-1c2-37.5,20.4-63.4,20.5-63.7
					c0.3-0.4,0.9-0.5,1.3-0.2c0.4,0.3,0.5,0.9,0.2,1.3c-0.2,0.3-18.2,25.8-20.2,62.7C457.7,394.7,457.3,395.1,456.8,395.1z"/>
				<path class="st3" d="M457.9,384.3c-0.2,0-0.3,0-0.4-0.1c-5.1-2.8-8-11.3-8.1-11.6c-0.2-0.5,0.1-1,0.6-1.2c0.5-0.2,1,0.1,1.2,0.6
					c0,0.1,2.7,8.1,7.2,10.6c0.4,0.2,0.6,0.8,0.4,1.2C458.5,384.1,458.2,384.3,457.9,384.3z"/>
				<path class="st3" d="M458.8,378.7c-0.4,0-0.8-0.3-0.9-0.7c-0.1-0.5,0.2-1,0.7-1.1c13.2-3.3,17.8-10.3,17.9-10.3
					c0.3-0.4,0.8-0.5,1.3-0.3c0.4,0.3,0.6,0.8,0.3,1.3c-0.2,0.3-5,7.6-19,11.1C458.9,378.7,458.8,378.7,458.8,378.7z"/>
			</g>
			<g>
				<g>
					<path id="XMLID_134_" class="st1" d="M246.3,372.1c0,0-17.6-4.3-18.5-37.1c-1-35.5,4.3-76.9-16.4-80.2
						c-20.7-3.4-32.4,22-32.1,51.5c0.2,25.9,10.7,82.1,67.1,93.1L246.3,372.1z"/>
					<path id="XMLID_133_" class="st2" d="M246.3,372.1c0,0-17.6-4.3-18.5-37.1c-1-35.5,4.3-76.9-16.4-80.2
						c-20.7-3.4-32.4,22-32.1,51.5c0.2,25.9,10.7,82.1,67.1,93.1L246.3,372.1z"/>
				</g>
				<path class="st3" d="M246.3,395.9c-0.1,0-0.1,0-0.2,0c-12.7-2.3-23-9.3-30.7-20.7c-22.8-33.9-15.6-97.3-13.3-108.3
					c0.1-0.5,0.6-0.8,1.1-0.7c0.5,0.1,0.8,0.6,0.7,1.1c-2.3,10.9-9.5,73.5,13,106.9c7.4,11,17.3,17.7,29.5,19.9
					c0.5,0.1,0.8,0.6,0.7,1.1C247.1,395.6,246.7,395.9,246.3,395.9z"/>
				<g id="XMLID_94_">
					<path id="XMLID_132_" class="st1" d="M246.3,480.3c-18.2,2.5-47.7,2.4-64.8-11c-17-13.4-13.5-24.9-6.9-29.8
						c6.5-4.8,12.2-10.3,1-21c-11.3-10.7-29.4-27.9-35.2-53.6c-5.9-25.8-3-41.9,8.5-47.2c11.2-5.2,14.1,3.1,21,20.1
						c6.8,17.1,22.2,2.4,35.4,7.8c13.2,5.3,12.6,15.9,13.5,24.9c0.8,9.1,5.2,11.6,12.6,11.6c7.5,0,14.9,4.3,14.9,12.9L246.3,480.3z"
						/>
					<path class="st3" d="M246.3,450.4c-0.1,0-0.2,0-0.2,0c-0.8-0.2-19.6-5.7-47-30.8c-29.2-26.7-42.9-66.8-43.1-67.2
						c-0.2-0.5,0.1-1,0.6-1.2c0.5-0.2,1,0.1,1.2,0.6c0.1,0.4,13.8,40,42.6,66.5c27,24.8,46,30.3,46.2,30.4c0.5,0.1,0.8,0.6,0.6,1.1
						C247,450.1,246.7,450.4,246.3,450.4z"/>
					<path class="st3" d="M206.7,426c-0.4,0-0.7-0.2-0.9-0.6c-5.9-15.1-7.2-47.4-7.3-48.7c0-0.5,0.4-0.9,0.9-1c0.5,0,0.9,0.4,1,0.9
						c0,0.3,1.4,33.3,7.2,48.1c0.2,0.5-0.1,1-0.5,1.2C206.9,426,206.8,426,206.7,426z"/>
					<path class="st3" d="M206.5,447.7c-2.9,0-4.8-0.2-5.1-0.3c-0.5-0.1-0.9-0.5-0.8-1c0.1-0.5,0.5-0.9,1-0.8c0.2,0,17.2,1.9,25.1-6
						c0.4-0.4,0.9-0.4,1.3,0c0.4,0.4,0.4,0.9,0,1.3C222.3,446.7,212.5,447.7,206.5,447.7z"/>
				</g>
			</g>
		</g>
	</g>
</g>
<g id="Gear" class="st4">
	<g id="XMLID_95_" class="st5">
		<g id="XMLID_113_">
			<path id="XMLID_129_" class="st6" d="M151.9,90.5l-1.5-8.5l-7.6,5c-0.8-1.5-1.7-2.6-2.9-3.5l3.6-9.9l-6.8-1.5l-5,9.6
				c-1.7,0.3-3.4,0.8-5.2,1.7l-2.2-7.2l-8.1,6.4l0.5,8.5c-1.6,1.8-3.1,3.8-4.5,5.9l-6.7-0.3l-4.7,10.6l5.8,2.5
				c-0.6,2.3-1,4.5-1.1,6.7l-7.3,6.7l1.5,8.5l7.6-5c0.8,1.5,1.7,2.6,2.9,3.5l-3.6,9.9l6.8,1.5l7.2-7c1.7-0.3,1.3-3.4,3.1-4.3
				l2.2,7.2l8.1-6.4l-0.2-3.3c1.6-1.8,7.8-5.9,9.2-8l1.7-2.8l4.7-10.6l-2.2-4l-2.4-5.2L151.9,90.5z M127.1,118.6
				c-6.2,4.9-8.1,6-9.2-0.6c-1.1-6.6,2.5-16.5,8.7-21.4c6.2-4.9,8.6-5.3,9.7,1.3C137.5,104.4,133.4,113.7,127.1,118.6z"/>
			<polygon id="XMLID_128_" class="st7" points="136.8,72.1 145.7,77.2 140.7,86.7 131.8,81.6 			"/>
			<polygon id="XMLID_127_" class="st7" points="159.3,87.1 151.7,92.1 142.8,87 150.4,81.9 			"/>
			<polygon id="XMLID_126_" class="st6" points="158.1,111.5 152.3,109 143.5,103.9 149.2,106.4 			"/>
			<polygon id="XMLID_125_" class="st6" points="106.6,139.9 115.4,145.1 119.1,135.2 110.2,130.1 			"/>
			<polygon id="XMLID_124_" class="st6" points="134.6,142.5 125.7,137.4 123.6,130.2 132.4,135.3 			"/>
			<path id="XMLID_121_" class="st8" d="M160.8,95.6l-1.5-8.5l-7.6,5c-0.8-1.5-1.7-2.6-2.9-3.5l3.6-9.9l-6.8-1.5l-5,9.6
				c-1.7,0.3-3.4,0.8-5.2,1.7l-2.2-7.2l-8.1,6.4l0.5,8.5c-1.6,1.8-3.1,3.8-4.5,5.9l-6.7-0.3l-4.7,10.6l5.8,2.5
				c-0.6,2.3-1,4.5-1.1,6.7l-7.3,6.7l1.5,8.5l7.6-5c0.8,1.5,1.7,2.6,2.9,3.5l-3.6,9.9l6.8,1.5l5-9.6c1.7-0.3,3.4-0.8,5.2-1.7
				l2.2,7.2l8.1-6.4l-0.5-8.5c1.6-1.8,3.1-3.8,4.5-5.9l6.7,0.3l4.7-10.6l-5.8-2.5c0.6-2.3,1-4.5,1.1-6.7L160.8,95.6z M136,123.7
				c-6.2,4.9-12.2,3.6-13.3-3s3-15.8,9.2-20.7c6.2-4.9,12.2-3.6,13.3,3C146.4,109.6,142.2,118.8,136,123.7z"/>
			<polygon id="XMLID_120_" class="st7" points="133.3,81.2 124.4,76.1 116.3,82.5 125.2,87.6 			"/>
			<polygon id="XMLID_119_" class="st6" points="116.3,82.5 116.8,91 125.7,96.1 125.2,87.6 			"/>
			<polygon id="XMLID_118_" class="st7" points="121.2,102.1 112.4,96.9 105.6,96.6 114.5,101.7 			"/>
			<polygon id="XMLID_117_" class="st6" points="105.6,96.6 100.9,107.2 109.8,112.3 114.5,101.7 			"/>
			<polygon id="XMLID_116_" class="st7" points="114.4,121.4 105.6,116.3 98.3,123 107.1,128.2 			"/>
			<polygon id="XMLID_115_" class="st6" points="108.6,136.7 99.7,131.6 98.3,123 107.1,128.2 			"/>
			<polygon id="XMLID_114_" class="st7" points="145.7,77.2 136.8,72.1 143.6,73.6 152.5,78.7 			"/>
		</g>
		<g id="XMLID_96_">
			<path id="XMLID_110_" class="st6" d="M112.2,51.7V39l-10.1,4.6c-0.6-2.4-1.5-4.4-2.7-6l6.4-12.9l-7.8-4.5l-8,12
				c-2-0.2-4.2,0-6.6,0.6l-1.1-11.1l-11,6.4l-1.1,12.4c-2.3,2.1-4.6,4.4-6.6,7l-8-2.8l-7.8,13.5l6.4,5.5c-1.2,3-2.1,6.1-2.7,9.2
				L41.3,80v12.8l10.1-4.6c0.6,2.4,1.5,4.4,2.7,6l-6.4,12.9l7.8,4.5l8-12c2,0.2,4.2,0,6.6-0.6l1.1,11.1l11-6.4l1.1-12.4
				c3.3-1.1,6.8-3.6,8.8-6.2l5.7,2l7.8-13.5l-4.8-4.1c1.2-3,1.3-7.9,1.1-10.6L112.2,51.7z M76.7,83.6C68.3,88.5,63,85,63,75.2
				c0-9.8,7-21.8,15.4-26.7c8.5-4.9,13.6-1.3,13.6,8.5C92.1,66.8,85.2,78.7,76.7,83.6z"/>
			<polygon id="XMLID_109_" class="st7" points="106.8,25.2 97.9,20.1 90,32.1 98.8,37.2 			"/>
			<polygon id="XMLID_108_" class="st7" points="121.1,44.1 112.2,39 102.1,43.6 110.9,48.7 			"/>
			<polygon id="XMLID_107_" class="st6" points="80.1,115.2 71.2,110.1 70.1,99 79,104.1 			"/>
			<polygon id="XMLID_106_" class="st6" points="47.8,107.1 56.6,112.2 63,99.3 54.2,94.2 			"/>
			<path id="XMLID_103_" class="st8" d="M121.1,56.9V44.1l-10.1,4.6c-0.6-2.4-1.5-4.4-2.7-6l6.4-12.9l-7.8-4.5l-8,12
				c-2-0.2-4.2,0-6.6,0.6l-1.1-11.1l-11,6.4L79,45.5c-2.3,2.1-4.6,4.4-6.6,7l-8-2.8l-7.8,13.5l6.4,5.5c-1.2,3-2.1,6.1-2.7,9.2
				l-10.1,7.1v12.8l10.1-4.6c0.6,2.4,1.5,4.4,2.7,6l-6.4,12.9l7.8,4.5l8-12c2,0.2,4.2,0,6.6-0.6l1.1,11.1l11-6.4l1.1-12.4
				c2.3-2.1,4.6-4.4,6.6-7l8,2.8l7.8-13.5l-6.4-5.5c1.2-3,2.1-6.1,2.7-9.2L121.1,56.9z M85.6,88.7c-8.5,4.9-15.3,0.9-15.3-8.9
				s6.9-21.7,15.3-26.6c8.5-4.9,15.3-0.9,15.3,8.9C100.9,71.9,94.1,83.8,85.6,88.7z"/>
			<polygon id="XMLID_102_" class="st9" points="63.5,47.4 72.4,52.5 64.4,49.7 55.6,44.6 			"/>
			<polygon id="XMLID_101_" class="st7" points="56.6,63.3 47.8,58.1 55.6,44.6 64.4,49.7 			"/>
			<polygon id="XMLID_100_" class="st6" points="47.8,58.1 56.6,63.3 63,68.8 54.2,63.7 			"/>
			<polygon id="XMLID_99_" class="st7" points="51.4,72.9 60.3,78 50.2,85.1 41.3,80 			"/>
			<polygon id="XMLID_98_" class="st6" points="41.3,80 50.2,85.1 50.2,97.9 41.3,92.8 			"/>
			<polygon id="XMLID_97_" class="st7" points="91.1,26.8 82.3,21.7 71.2,28.1 80.1,33.2 			"/>
		</g>
	</g>
</g>
<g id="Device">
	<g>
		<path id="XMLID_362_" class="st6" d="M264.3,504.8l172.5-99.4c1.8-1,1.8-2.7,0-3.7l-16-9.2c-1.8-1-4.6-1-6.4,0L242,491.9
			c-1.8,1-1.8,2.7,0,3.7l16,9.2C259.7,505.8,262.6,505.8,264.3,504.8z"/>
		<path id="XMLID_55_" class="st10" d="M432.1,21.8l-155.5,89.6c-4.4,2.5-7.9,8.7-7.9,13.7v368.1c0,5.1,3.6,7.1,7.9,4.6l155.5-89.6
			c4.4-2.5,7.9-8.7,7.9-13.7l0-368.1C440,21.3,436.5,19.2,432.1,21.8z"/>
		<path id="XMLID_54_" class="st11" d="M276.6,111.4l155.5-89.6c3.9-2.3,7.2-0.9,7.8,3.1c-0.6-4.7-3.9-10-7.8-12.2l-6.5-3.7
			c-4.4-2.5-11.5-2.5-15.9,0L254.2,98.5c-2.2,1.3-4.2,3.4-5.6,5.9l22.4,12.9C272.4,114.8,274.4,112.6,276.6,111.4z"/>
		<path id="XMLID_53_" class="st12" d="M246.3,480.3c0,5.1,3.6,11.2,7.9,13.7l6.5,3.7c4,2.3,10.1,2.5,14.5,0.6
			c-3.7,1.4-6.6-0.7-6.6-5.2V125.1c0-2.5,0.9-5.3,2.3-7.8l-22.4-12.9c-1.4,2.5-2.3,5.3-2.3,7.8L246.3,480.3z"/>
		<path id="XMLID_52_" class="st3" d="M280.8,160.4l147-84.7c2.6-1.5,4.8-0.3,4.8,2.7l0,272.4c0,3-2.1,6.7-4.8,8.2l-147,84.7
			c-2.6,1.5-4.8,0.3-4.8-2.7l0-272.4C276.1,165.6,278.2,161.9,280.8,160.4z"/>
		<path id="XMLID_51_" class="st11" d="M354.3,80.5c-1.5,0.9-2.8,3.1-2.8,4.8c0,1.8,1.3,2.5,2.8,1.6c1.5-0.9,2.8-3.1,2.8-4.8
			C357.1,80.4,355.9,79.6,354.3,80.5z"/>
		<path id="XMLID_50_" class="st11" d="M354.3,414.5c-6.1,3.5-11,12-11,19.1c0,7,4.9,9.9,11,6.4c6.1-3.5,11-12,11-19.1
			C365.4,413.9,360.4,411,354.3,414.5z"/>
		<g id="XMLID_47_">
			<path id="XMLID_49_" class="st11" d="M327.9,108.9c-3.1,1.8-5.6,6.1-5.6,9.7c0,3.6,2.5,5,5.6,3.2c3.1-1.8,5.6-6.1,5.6-9.7
				C333.5,108.5,331,107.1,327.9,108.9z"/>
			<path id="XMLID_48_" class="st11" d="M341.6,107.7c0,2.4,1.8,3.3,4,2l36.8-21.2c2.2-1.3,4-4.2,4-6.6c0-2.4-1.8-3.3-4-2
				l-36.8,21.2C343.4,102.3,341.6,105.3,341.6,107.7z"/>
		</g>
		<path id="XMLID_46_" class="st11" d="M258.6,172.2c2.5,1.4,4.5,4.9,4.5,7.7c0,2.8-2,4-4.5,2.6c-2.5-1.4-4.5-4.9-4.5-7.7
			S256.2,170.8,258.6,172.2z"/>
		<path id="XMLID_45_" class="st11" d="M258.6,206.6c2.5,1.4,4.5,4.9,4.5,7.7c0,2.8-2,4-4.5,2.6c-2.5-1.4-4.5-4.9-4.5-7.7
			C254.2,206.3,256.2,205.2,258.6,206.6z"/>
		<path id="XMLID_267_" class="st10" d="M257.2,172.9c2.5,1.4,4.5,4.9,4.5,7.7s-2,4-4.5,2.6c-2.5-1.4-4.5-4.9-4.5-7.7
			C252.8,172.6,254.8,171.5,257.2,172.9z"/>
		<path id="XMLID_44_" class="st10" d="M257.2,207.3c2.5,1.4,4.5,4.9,4.5,7.7c0,2.8-2,4-4.5,2.6c-2.5-1.4-4.5-4.9-4.5-7.7
			S254.8,205.9,257.2,207.3z"/>
		<g id="XMLID_294_">
			<path id="XMLID_43_" class="st13" d="M462.4,87.1c0-3-2.1-4.3-4.8-2.7L440,94.5L310.6,169c-2.6,1.5-4.8,5.2-4.8,8.2l0,272.4
				c0,3,2.1,4.3,4.8,2.7l129.4-74.6l17.5-10.1c2.6-1.5,4.8-5.2,4.8-8.2L462.4,87.1z"/>
			<path class="st14" d="M308.5,454c-0.6,0-1.2-0.1-1.7-0.4c-1.2-0.7-1.9-2.1-1.9-3.9l0-272.4c0-3.4,2.3-7.3,5.2-9l129.4-74.5
				l0.9,1.6l-129.4,74.5c-2.3,1.3-4.3,4.8-4.3,7.4l0,272.4c0,1.1,0.3,1.9,0.9,2.3c0.6,0.3,1.5,0.2,2.5-0.3L439.6,377l0.9,1.6
				l-129.4,74.6C310.2,453.7,309.3,454,308.5,454z"/>
			<path class="st15" d="M440.5,378.6l-0.9-1.6l17.5-10.1c2.3-1.3,4.3-4.8,4.3-7.4l0-272.4c0-1.1-0.3-1.9-0.9-2.3
				c-0.6-0.3-1.5-0.2-2.5,0.3l-17.6,10.1l-0.9-1.6l17.6-10.1c1.6-0.9,3.1-1,4.3-0.3c1.2,0.7,1.9,2.1,1.9,3.9l0,272.4
				c0,3.4-2.3,7.3-5.2,9L440.5,378.6z"/>
		</g>
		<g>
			<path id="XMLID_42_" class="st16" d="M384.1,150.4c16.5-9.5,29.8-1.8,29.8,17.2s-13.3,42-29.8,51.5c-16.5,9.5-29.8,1.8-29.8-17.2
				C354.3,183,367.7,159.9,384.1,150.4z"/>
			<path id="XMLID_41_" class="st17" d="M384.1,165.3c5.3-3.1,9.7-0.6,9.7,5.6c0,6.2-4.3,13.6-9.7,16.7c-5.3,3.1-9.7,0.6-9.7-5.6
				S378.8,168.4,384.1,165.3z"/>
		</g>
		<path id="XMLID_274_" class="st17" d="M403,198.2c0-10.1-7.1-14.2-15.9-9.2l-5.5,3.2c-8.8,5.1-15.9,17.3-15.9,27.5v2.7
			c5.1,1.7,11.5,0.8,18.4-3.2c7.2-4.1,13.7-10.8,18.9-18.6V198.2z"/>
		<g>
			<path id="XMLID_5_" class="st18" d="M384.1,165.3c5.3-3.1,9.7-0.6,9.7,5.6c0,6.2-4.3,13.6-9.7,16.7c-5.3,3.1-9.7,0.6-9.7-5.6
				S378.8,168.4,384.1,165.3z"/>
			<path id="XMLID_4_" class="st18" d="M403,198.2c0-10.1-7.1-14.2-15.9-9.2l-5.5,3.2c-8.8,5.1-15.9,17.3-15.9,27.5v2.7
				c5.1,1.7,11.5,0.8,18.4-3.2c7.2-4.1,13.7-10.8,18.9-18.6V198.2z"/>
		</g>
		<g>
			<path id="XMLID_482_" class="st19" d="M326.5,260.9l38.4-22.1c1.8-1,3.2-0.2,3.2,1.8v1.3c0,2-1.4,4.5-3.2,5.5l-38.4,22.1
				c-1.8,1-3.2,0.2-3.2-1.8v-1.3C323.3,264.4,324.7,261.9,326.5,260.9z"/>
			<path id="XMLID_7_" class="st20" d="M326.5,260.9l38.4-22.1c1.8-1,3.2-0.2,3.2,1.8v1.3c0,2-1.4,4.5-3.2,5.5l-38.4,22.1
				c-1.8,1-3.2,0.2-3.2-1.8v-1.3C323.3,264.4,324.7,261.9,326.5,260.9z"/>
		</g>
		<g>
			<path id="XMLID_483_" class="st21" d="M324.9,287.6l116.1-66.9c0.9-0.5,1.6-0.1,1.6,0.9v13.5c0,1-0.7,2.2-1.6,2.7l-116.1,66.9
				c-0.9,0.5-1.6,0.1-1.6-0.9v-13.5C323.3,289.3,324,288.1,324.9,287.6z"/>
			<path id="XMLID_10_" class="st22" d="M324.9,287.6l116.1-66.9c0.9-0.5,1.6-0.1,1.6,0.9v13.5c0,1-0.7,2.2-1.6,2.7l-116.1,66.9
				c-0.9,0.5-1.6,0.1-1.6-0.9v-13.5C323.3,289.3,324,288.1,324.9,287.6z"/>
		</g>
		<g>
			<path id="XMLID_512_" class="st17" d="M326.5,321l38.4-22.1c1.8-1,3.2-0.2,3.2,1.8v1.3c0,2-1.4,4.5-3.2,5.5l-38.4,22.1
				c-1.8,1-3.2,0.2-3.2-1.8v-1.3C323.3,324.5,324.7,322.1,326.5,321z"/>
			<path id="XMLID_8_" class="st23" d="M326.5,321l38.4-22.1c1.8-1,3.2-0.2,3.2,1.8v1.3c0,2-1.4,4.5-3.2,5.5l-38.4,22.1
				c-1.8,1-3.2,0.2-3.2-1.8v-1.3C323.3,324.5,324.7,322.1,326.5,321z"/>
		</g>
		<g>
			<path id="XMLID_511_" class="st24" d="M324.9,347.7l116.1-66.9c0.9-0.5,1.6-0.1,1.6,0.9v13.5c0,1-0.7,2.2-1.6,2.7l-116.1,66.9
				c-0.9,0.5-1.6,0.1-1.6-0.9v-13.5C323.3,349.5,324,348.2,324.9,347.7z"/>
			<path id="XMLID_11_" class="st25" d="M324.9,347.7l116.1-66.9c0.9-0.5,1.6-0.1,1.6,0.9v13.5c0,1-0.7,2.2-1.6,2.7l-116.1,66.9
				c-0.9,0.5-1.6,0.1-1.6-0.9v-13.5C323.3,349.5,324,348.2,324.9,347.7z"/>
		</g>
		<g>
			<path id="XMLID_510_" class="st26" d="M371.2,355.4L417,329c1.8-1,3.2-0.2,3.2,1.8V345c0,2-1.4,4.5-3.2,5.5l-45.8,26.4
				c-1.8,1-3.2,0.2-3.2-1.8v-14.1C368,358.9,369.4,356.4,371.2,355.4z"/>
			<path id="XMLID_9_" class="st27" d="M371.2,355.4L417,329c1.8-1,3.2-0.2,3.2,1.8V345c0,2-1.4,4.5-3.2,5.5l-45.8,26.4
				c-1.8,1-3.2,0.2-3.2-1.8v-14.1C368,358.9,369.4,356.4,371.2,355.4z"/>
		</g>
	</g>
</g>
<g id="Character">
	<g>
		<path id="XMLID_60_" class="st28" d="M479.8,295.7c0,0-22.5-31-23.9-34.7c-1-2.8,0.1-6.9,0.3-8.8c0.3-1.9,0.6-6.2,1-7.4
			c0.6-2.1-2.1-1.7-3.7,0.2c-1.6,1.9-2,5.7-2.8,6.3c-0.8,0.6-6.8-8.1-9.9-12.1c-3.1-4-5.1-6.5-7-5c-1.4,1.1-0.4,3.4,1.9,6.9
			c2.3,3.4,3.3,5,3.6,5.8c0.3,0.7-1.5,0.8-2.5,2.4c-0.8,1.2-0.1,3.2-1.1,4.1c-1,0.9-2,2.6-0.9,4.5c1.5,2.4,4.4,5.9,7.8,8.2
			c3.4,2.3,4.7,3.1,6.7,6.3c2,3.2,19.9,35.5,21.2,37.5c1.2,1.9,3.5,5.9,7.1,6c3.5,0.1,32.5-24.8,34-26c4.8-4,6.3-4.6,7.1-1
			c0.3,1.1,0.4,2.4,0.6,3.8c0.6,4.5,3.7,20.8,3.7,20.8s14.7,7.1,26.7,3.6c12.1-3.5,16.1-8.5,16.1-8.5l-6-9.8
			c1.6-4.1,9.2-20.4,11.6-31.9l-37.8-6.1c-0.8-0.2-2-0.5-3.6-0.9c-2.1-0.5-7.3-2.4-11.3,1.1C505.6,272.2,479.8,295.7,479.8,295.7"/>
		<path id="XMLID_59_" class="st11" d="M554.7,486l-6.8,9.4c0,0,3.1,1.8,9.8,2.1c6.1,0.2,7.7-1.8,8-2.2c1-2.2-0.6-6.1-1-9.5
			L554.7,486z"/>
		<path id="XMLID_58_" class="st11" d="M548.3,490.9c0,0-8.2-0.5-13.9-1.2c-5.7-0.7-10.2,2.1-8.8,4.4c1.3,2.3,4.5,4.3,9.3,5.9
			c4.2,1.4,9.2,2.4,13.5,3.7c4.5,1.3,7.3,2.9,9.8,2c2.8-1,4-2.1,3.8-4.1c-0.2-2-2.3-8.6-2.3-8.6L548.3,490.9z"/>
		<path id="XMLID_57_" class="st29" d="M565.7,476.6c0,0-1,8.5-1.1,10.4c-0.1,1.8-8.3,2.4-9.9-0.9l-0.3-10.4L565.7,476.6z"/>
		<path id="XMLID_56_" class="st28" d="M557.4,481.8l3,12.9c0,0,0.3,1.6-6.5,2.6c-6.8,1-17.4-3.5-19.2-4.4c-1.8-0.9-2-2.8,4.6-2.4
			c6.6,0.4,9,0.4,9,0.4l-2.2-5.7L557.4,481.8z"/>
		<path id="XMLID_40_" class="st29" d="M571.3,266.8l4.7-1.3c0,0,9.8,30.9,10.9,33.9c1.1,3,2.3,6.1,0.2,9.8
			c-2.5,4.4-15.7,22-15.7,22l-8.4-8.2l9.5-17.4l-8.4-17L571.3,266.8z"/>
		<path id="XMLID_39_" class="st11" d="M523.2,226.6c0,0-3.7-6,0.2-13.3c4.6-8.6,15-12.8,27.4-11.2c5.7,0.7,12.5,5.4,16.2,12.6
			c4.1,7.9,4.4,23.7,5.5,29.7L523.2,226.6z"/>
		<path id="XMLID_38_" class="st28" d="M522.9,230c0,0-2.9,5.6-2.4,6.1c0.5,0.5,2.5,0.9,2.5,0.9L522.9,230z"/>
		<path id="XMLID_37_" class="st28" d="M531.8,212.3c-3.2,2.1-8.7,5.9-8.9,18.4c-0.2,12.9,1.6,17,3.5,18.5c1.3,1,8.8,0.5,12.1-0.3
			c3.2-0.8,12.5-5.3,15.9-12.3c3.9-8.2,3.1-20.2-2.7-23.7C543.4,208.1,534.6,210.6,531.8,212.3z"/>
		<g>
			<path id="XMLID_36_" class="st30" d="M565.7,308.5c5.7,8.8,11,16.5,12.2,26.4c2.4,20.9-5.5,44.7-7.2,60.1c0,0,5.3,6.9,5.3,15.1
				c0,6.4-10.3,66.5-10.3,66.5s-7.5,2.3-11.3-1L547.4,365l3.7-13.5L565.7,308.5z"/>
			<path id="XMLID_35_" class="st2" d="M565.7,308.5c5.7,8.8,11,16.5,12.2,26.4c2.4,20.9-5.5,44.7-7.2,60.1c0,0,5.3,6.9,5.3,15.1
				c0,6.4-10.3,66.5-10.3,66.5s-7.5,2.3-11.3-1L547.4,365l3.7-13.5L565.7,308.5z"/>
		</g>
		<g>
			<path id="XMLID_34_" class="st30" d="M547.4,365l3.7-13.5c0,0,10.3-2.5,20.2-8c0,0-3.8,6.9-14.8,10.7l-5.7,17.3l-0.5,39.6
				L547.4,365z"/>
			<path id="XMLID_33_" class="st31" d="M547.4,365l3.7-13.5c0,0,10.3-2.5,20.2-8c0,0-3.8,6.9-14.8,10.7l-5.7,17.3l-0.5,39.6
				L547.4,365z"/>
		</g>
		<g>
			<path id="XMLID_32_" class="st30" d="M565.7,308.5c3,4.9,10.3,13.4,8.7,21.5c-1.9,9.8-7.2,16.7-23.3,21.5l-15.2,54.9
				c0,0,7.9,7.4,10.3,14.4c2.4,7,11.1,61.1,11.1,61.1s-2.7,4.4-11.2,3.3c0,0-29.7-67.8-31.8-72.1c-2.1-4.4-3.5-7.6-2.5-14.7
				c0.9-7.1,11.1-84.9,11.1-84.9L565.7,308.5z"/>
			<path id="XMLID_15_" class="st2" d="M565.7,308.5c3,4.9,10.3,13.4,8.7,21.5c-1.9,9.8-7.2,16.7-23.3,21.5l-15.2,54.9
				c0,0,7.9,7.4,10.3,14.4c2.4,7,11.1,61.1,11.1,61.1s-2.7,4.4-11.2,3.3c0,0-29.7-67.8-31.8-72.1c-2.1-4.4-3.5-7.6-2.5-14.7
				c0.9-7.1,11.1-84.9,11.1-84.9L565.7,308.5z"/>
		</g>
		<g>
			<path id="XMLID_14_" class="st32" d="M571.3,266.8l-37.8-6.1c-0.8-0.2-2-0.5-3.6-0.9l0,0c0,0-1.6,23.6-11.3,29.1h0
				c0.2,1.1,0.4,2.4,0.6,3.8c0.6,4.5,3.7,20.8,3.7,20.8s14.7,7.1,26.7,3.6c12.1-3.5,16.1-8.5,16.1-8.5l-6-9.8
				C561.3,294.6,568.9,278.2,571.3,266.8z"/>
			<path id="XMLID_13_" class="st33" d="M571.3,266.8l-37.8-6.1c-0.8-0.2-2-0.5-3.6-0.9l0,0c0,0-1.6,23.6-11.3,29.1h0
				c0.2,1.1,0.4,2.4,0.6,3.8c0.6,4.5,3.7,20.8,3.7,20.8s14.7,7.1,26.7,3.6c12.1-3.5,16.1-8.5,16.1-8.5l-6-9.8
				C561.3,294.6,568.9,278.2,571.3,266.8z"/>
		</g>
		<path id="XMLID_12_" class="st30" d="M561.3,294.8c-0.2,0.4-12.1,6.8-15.7,7.7c5.6-0.3,10.3-1.6,14.1-3.9L561.3,294.8z"/>
		<path id="XMLID_2_" class="st11" d="M530.9,213c0,0-1.8,11.9,2.5,18.9c0,0,1.6-4.7,5.6-3.8c4.1,0.9,4.2,6.2,1.4,9.2
			c-2.8,3-6,1.9-6,1.9s-0.6,8.6-1,15.8c-0.3,7-2.3,22.9,5.9,29.4c8.1,6.4,28.5,8.6,38.1-4.7c5.3-7.4-1.7-20.5-5-35.2
			c-3-13.5-4.7-33.5-19.1-36.8C539,204.3,530.9,213,530.9,213z"/>
	</g>
</g>
<g id="Cloud" class="st4">
	<path id="XMLID_295_" class="st34" d="M442.8,52.6l-2.3,1.3c0.2-0.8,0.3-1.7,0.3-2.5c0-4.6-3.2-6.4-7.2-4.1
		c-1.2,0.7-2.2,1.6-3.2,2.7c0,0,0,0,0,0c0-6.2-4.3-8.7-9.7-5.6c-5.3,3.1-9.7,10.6-9.7,16.8c0,0.3,0,0.6,0,0.9
		c-1.1-0.2-2.5,0.1-3.9,0.9c-4,2.3-7.2,7.9-7.2,12.4c0,0.6,0.1,1.2,0.2,1.7l-1.2,0.7c-3.3,1.9-5.9,5.6-5.9,8.2
		c0,2.7,2.7,3.3,5.9,1.4l43.7-25.3c3.3-1.9,5.9-5.6,5.9-8.2C448.7,51.3,446,50.7,442.8,52.6z"/>
</g>
</svg>
